<svg xmlns="http://www.w3.org/2000/svg" width="1024" height="1024" viewBox="0 0 1024 1024">
<g>
<path d="M 315.99 619.18 C307.22,630.55 299.56,640.15 298.96,640.52 C298.19,641.00 297.99,636.52 298.25,625.11 L 298.63 609.02 L 307.32 595.76 C312.11,588.47 318.05,579.58 320.53,576.00 C323.01,572.42 327.62,565.38 330.77,560.35 C333.92,555.31 339.59,546.54 343.37,540.85 C347.15,535.16 355.40,522.62 361.71,513.00 C368.01,503.38 375.86,491.45 379.13,486.50 C382.41,481.55 388.05,473.00 391.67,467.50 C395.29,462.00 400.45,454.27 403.13,450.33 C405.81,446.38 408.00,442.93 408.00,442.66 C408.00,442.39 411.92,436.40 416.71,429.34 C421.50,422.28 427.01,413.95 428.96,410.84 C430.91,407.73 435.93,400.08 440.13,393.84 C444.32,387.60 450.04,378.90 452.83,374.50 C455.63,370.10 460.65,362.45 463.99,357.50 C481.50,331.57 499.11,304.77 498.82,304.50 C498.65,304.33 487.50,304.04 474.05,303.87 L 449.60 303.55 L 445.86 318.53 C443.81,326.76 442.10,333.84 442.06,334.25 C441.95,335.63 439.00,335.04 395.66,324.95 C371.92,319.42 340.80,312.22 326.50,308.95 C312.20,305.68 295.77,301.89 290.00,300.52 C284.23,299.15 274.33,296.85 268.00,295.41 C261.67,293.96 256.18,292.48 255.78,292.12 C255.38,291.75 257.32,281.79 260.09,269.98 C262.86,258.17 265.50,246.70 265.96,244.50 C266.42,242.30 270.92,222.95 275.95,201.50 C291.13,136.74 292.84,129.88 293.00,123.00 C293.02,122.12 293.01,121.25 293.01,120.26 C293.00,119.77 293.00,119.25 293.00,118.68 L 293.00 108.83 L 303.75 109.40 C309.66,109.71 327.10,110.21 342.50,110.51 C357.90,110.81 409.42,111.96 457.00,113.08 C686.08,118.45 699.19,118.69 704.32,117.74 C711.24,116.46 734.74,117.43 743.64,119.37 C788.19,129.08 822.68,163.66 832.03,208.00 C834.84,221.31 835.07,241.60 832.56,253.33 C827.24,278.17 816.89,297.05 799.19,314.21 C782.51,330.37 770.02,337.50 747.50,343.69 C732.34,347.86 704.85,347.99 691.50,343.95 C680.91,340.75 671.81,337.22 666.69,334.32 C663.44,332.49 659.69,330.71 658.36,330.38 C657.04,330.04 655.36,328.92 654.63,327.88 C653.90,326.83 650.74,324.15 647.62,321.91 C644.49,319.67 640.84,316.75 639.51,315.42 C638.18,314.09 636.62,313.00 636.05,313.00 C635.47,313.00 635.00,312.33 635.00,311.50 C635.00,310.68 633.48,308.32 631.63,306.25 C627.03,301.12 619.46,289.65 616.28,283.00 C614.84,279.98 613.12,276.83 612.47,276.00 C611.81,275.17 611.00,273.15 610.66,271.50 C610.32,269.85 608.90,264.45 607.49,259.50 C602.86,243.13 603.33,218.43 608.63,200.16 C613.32,183.95 622.58,167.05 632.93,155.75 L 638.20 150.00 L 626.85 149.99 C620.61,149.99 578.60,149.10 533.50,148.02 C415.05,145.17 363.00,144.01 342.01,143.74 L 323.51 143.50 L 322.25 148.50 C321.56,151.25 319.18,161.38 316.96,171.00 C314.74,180.62 311.85,193.00 310.55,198.50 C309.24,204.00 306.51,215.70 304.48,224.50 C302.45,233.30 299.49,245.94 297.90,252.60 C296.30,259.25 295.00,265.39 295.00,266.23 C295.00,267.20 296.56,268.15 299.25,268.82 C314.78,272.70 415.23,296.00 416.42,296.00 C418.01,296.00 418.41,294.85 422.04,279.78 L 424.38 270.06 L 441.44 270.56 C463.14,271.20 545.90,273.00 553.33,273.00 L 558.95 273.00 L 543.48 296.55 C534.96,309.51 528.00,320.53 528.00,321.05 C528.00,321.57 527.63,322.00 527.17,322.00 C526.71,322.00 525.70,323.24 524.92,324.75 C524.14,326.26 522.32,329.30 520.88,331.50 C519.44,333.70 514.45,341.35 509.79,348.50 C492.13,375.56 434.48,463.02 426.40,475.00 C421.76,481.88 406.83,501.85 393.23,519.40 C348.66,576.88 332.15,598.21 315.99,619.18 ZM 762.91 798.56 C760.46,800.07 728.35,799.76 649.50,797.46 C603.85,796.13 526.78,793.97 478.22,792.66 C429.67,791.35 389.71,790.05 389.42,789.75 C388.44,788.78 399.25,773.79 408.75,762.96 C410.54,760.92 412.00,758.70 412.00,758.02 C412.00,757.24 412.64,757.05 413.75,757.51 C415.61,758.27 452.71,759.41 608.00,763.43 C661.08,764.81 710.87,766.20 718.66,766.52 C726.44,766.85 733.05,766.73 733.33,766.27 C734.06,765.09 759.11,657.17 759.51,653.50 C759.69,651.85 760.23,649.15 760.72,647.50 C761.21,645.85 761.58,643.90 761.55,643.16 C761.50,641.73 756.33,639.63 750.21,638.55 C746.58,637.92 726.48,633.28 706.50,628.47 C701.00,627.15 689.75,624.50 681.50,622.58 C673.25,620.66 661.78,617.98 656.00,616.62 C650.22,615.27 644.15,614.01 642.50,613.83 L 639.50 613.50 L 637.17 624.50 C635.89,630.55 634.64,636.13 634.39,636.91 C634.01,638.10 628.81,638.21 600.72,637.66 C567.97,637.01 509.81,634.97 509.17,634.45 C508.69,634.05 531.35,604.27 533.11,603.00 C533.49,602.72 538.68,602.74 544.65,603.04 C550.62,603.34 556.19,603.27 557.03,602.88 C557.87,602.49 559.22,602.52 560.03,602.96 C560.84,603.39 571.34,603.98 583.36,604.26 C602.93,604.72 605.40,604.60 606.90,603.10 C607.91,602.09 609.76,595.89 611.51,587.71 C614.10,575.57 614.67,574.00 616.47,573.99 C619.22,573.98 800.71,616.37 801.56,617.23 C802.04,617.71 800.52,624.65 794.49,649.50 C790.50,665.93 782.15,701.50 771.57,747.19 C765.12,775.02 764.00,781.21 764.00,788.88 C764.00,794.32 763.57,798.15 762.91,798.56 ZM 723.50 242.42 C726.25,243.19 729.40,243.86 730.50,243.91 C732.78,244.02 752.66,224.32 757.70,216.95 L 760.82 212.40 L 754.45 195.45 C750.95,186.13 748.06,177.92 748.04,177.21 C747.95,174.51 731.55,169.26 714.50,166.48 C709.55,165.67 705.22,165.01 704.87,165.00 C704.53,165.00 698.12,171.77 690.62,180.04 L 677.00 195.09 L 677.00 200.81 C677.00,208.45 680.24,219.73 685.13,229.13 L 689.13 236.82 L 695.31 237.48 C704.16,238.43 717.67,240.79 723.50,242.42 ZM 753.39 291.51 C756.75,292.24 762.75,292.88 766.73,292.92 L 773.96 293.00 L 780.98 286.38 C784.85,282.73 791.22,275.54 795.14,270.38 L 802.28 261.01 L 801.57 252.26 C800.33,236.89 796.65,222.00 794.09,222.00 C793.22,222.00 785.80,220.37 777.61,218.37 C764.08,215.07 762.64,214.89 761.80,216.40 C759.88,219.82 750.93,229.92 742.50,238.18 L 733.77 246.74 L 735.35 253.12 C737.73,262.76 738.98,271.76 738.99,279.23 L 739.00 285.96 L 743.14 288.07 C745.42,289.23 750.03,290.78 753.39,291.51 ZM 654.05 270.91 C656.50,271.39 660.61,271.83 663.19,271.89 L 667.87 272.00 L 672.33 262.59 C674.78,257.41 678.86,249.97 681.40,246.06 C683.93,242.14 686.00,238.71 686.00,238.42 C686.00,238.14 683.99,233.77 681.54,228.70 C676.71,218.75 674.04,209.22 674.01,201.84 L 674.00 197.19 L 669.25 196.63 C666.64,196.32 659.94,195.78 654.36,195.43 L 644.22 194.80 L 640.13 200.21 C637.89,203.18 634.14,209.64 631.80,214.56 C628.07,222.42 627.57,224.29 627.67,230.00 C627.82,237.48 631.64,250.55 636.24,259.24 C638.77,264.03 640.13,265.41 644.43,267.51 C647.27,268.90 651.60,270.43 654.05,270.91 ZM 711.50 327.13 C715.71,328.26 732.14,327.38 740.62,325.59 C747.92,324.04 758.25,320.48 763.95,317.52 C767.69,315.59 771.46,308.23 772.54,300.75 L 773.23 296.00 L 767.36 295.99 C758.66,295.98 749.18,294.21 743.16,291.46 L 737.82 289.03 L 733.33 292.11 C727.15,296.37 715.64,301.56 707.39,303.81 L 700.50 305.70 L 700.21 311.67 C700.05,314.96 700.36,318.83 700.91,320.27 C701.94,322.97 706.18,325.72 711.50,327.13 ZM 746.00 171.98 C746.68,172.43 747.12,172.73 747.60,172.81 C748.57,172.96 749.68,172.16 753.20,169.63 L 753.50 169.42 C756.25,167.44 761.20,164.47 764.50,162.80 C767.80,161.13 770.67,159.61 770.89,159.41 C772.31,158.12 760.83,145.47 755.98,142.99 C746.71,138.26 725.62,135.28 712.62,136.87 C705.04,137.80 692.00,142.28 692.00,143.96 C692.00,144.34 693.17,145.74 694.59,147.08 C696.02,148.41 699.00,152.30 701.22,155.73 C704.45,160.73 705.87,162.06 708.38,162.46 C726.21,165.31 741.91,169.29 746.00,171.98 ZM 687.00 321.09 C688.38,321.52 691.25,321.79 693.40,321.69 L 697.30 321.50 L 697.29 313.26 C697.29,305.33 697.17,304.93 694.39,302.84 C688.41,298.36 680.56,290.24 674.87,282.65 L 668.98 274.80 L 661.24 274.52 C654.47,274.27 648.12,272.73 640.61,269.49 C638.85,268.73 638.78,269.05 639.46,274.56 C640.52,282.98 643.28,288.07 651.60,296.92 C661.23,307.15 677.04,317.95 687.00,321.09 ZM 807.92 262.48 C809.34,263.24 810.83,263.53 811.24,263.14 C812.84,261.59 816.05,246.09 816.63,237.06 C817.65,221.36 812.94,197.84 808.36,195.76 C807.06,195.16 805.73,194.93 805.42,195.25 C805.10,195.57 804.01,199.58 802.99,204.16 C801.98,208.75 800.48,214.34 799.67,216.59 C798.31,220.39 798.37,221.25 800.61,228.98 C801.93,233.54 803.54,242.64 804.18,249.20 C805.28,260.44 805.49,261.20 807.92,262.48 ZM 800.33 184.77 C806.71,192.79 809.69,193.60 805.40,186.16 C800.57,177.77 794.28,169.61 787.84,163.34 C781.87,157.55 770.59,149.00 768.90,149.00 C767.10,149.00 775.31,159.35 780.66,163.82 C787.40,169.45 792.22,174.57 800.33,184.77 ZM 627.03 214.98 C627.04,215.82 628.81,213.19 630.95,209.15 C633.10,205.11 636.69,199.63 638.93,196.97 C641.50,193.92 643.02,191.11 643.06,189.32 C643.09,187.77 643.91,183.46 644.88,179.75 C645.84,176.04 646.36,173.00 646.03,173.00 C644.89,173.00 637.00,185.81 633.94,192.63 C630.90,199.42 626.98,212.09 627.03,214.98 Z" fill="rgb(0,0,1)"/>
<path d="M 298.81 735.45 C295.55,737.75 293.39,738.45 289.06,738.61 C280.91,738.93 279.21,738.31 274.12,733.16 C268.21,727.20 266.19,721.02 267.83,713.93 C268.95,709.05 270.56,706.61 281.50,693.10 C284.80,689.03 288.60,684.31 289.94,682.60 C291.29,680.90 293.90,677.70 295.74,675.50 C297.59,673.30 299.64,670.85 300.30,670.07 C303.04,666.79 313.12,654.34 327.84,636.05 C336.45,625.36 345.52,614.11 347.98,611.05 C350.45,608.00 354.27,603.18 356.48,600.34 C358.69,597.50 365.90,588.55 372.50,580.44 C379.10,572.34 386.52,563.13 389.00,559.98 C399.21,546.97 405.10,539.59 416.50,525.55 C423.10,517.41 429.38,509.57 430.45,508.13 C431.52,506.68 438.29,498.08 445.49,489.00 C467.11,461.77 476.24,450.24 481.50,443.51 C493.49,428.17 501.37,418.08 505.77,412.44 C511.38,405.25 530.33,380.75 541.26,366.57 C545.53,361.03 551.45,353.35 554.43,349.50 C568.11,331.77 593.89,297.81 601.81,287.06 L 602.18 286.57 C609.55,276.57 610.96,274.65 610.90,272.78 C610.90,272.63 610.88,272.49 610.86,272.34 C611.26,273.78 611.92,275.31 612.47,276.00 C613.12,276.83 614.84,279.98 616.28,283.00 C619.46,289.65 627.03,301.12 631.63,306.25 C633.48,308.32 635.00,310.68 635.00,311.50 C635.00,312.33 635.47,313.00 636.05,313.00 C636.62,313.00 638.18,314.09 639.51,315.42 C638.18,314.09 636.42,313.00 635.60,313.00 C634.38,313.00 622.39,328.16 599.21,359.00 C593.11,367.11 591.55,369.17 587.17,374.87 C584.79,377.97 580.31,383.88 577.20,388.00 C574.09,392.12 568.83,398.88 565.50,403.00 C560.04,409.77 543.37,431.23 532.21,445.87 C529.84,448.97 526.62,453.08 525.04,455.00 C523.45,456.92 519.20,462.33 515.58,467.00 C511.96,471.67 508.41,476.17 507.68,477.00 C506.95,477.83 502.34,483.63 497.43,489.90 C492.52,496.18 478.47,513.95 466.20,529.40 C453.94,544.86 441.81,560.20 439.24,563.50 C436.67,566.80 430.48,574.45 425.49,580.50 C420.49,586.55 414.18,594.42 411.47,598.00 C408.76,601.58 403.05,608.78 398.80,614.00 C394.54,619.22 388.23,627.04 384.78,631.36 C381.33,635.69 376.24,641.99 373.48,645.36 C350.78,673.09 346.38,678.55 345.50,680.05 C344.95,680.99 342.65,683.95 340.39,686.63 C332.31,696.19 316.36,715.64 309.73,724.00 C306.02,728.67 301.11,733.83 298.81,735.45 Z" fill="rgb(0,151,176)"/>
<path d="M 599.50 654.29 C604.45,654.43 616.26,654.63 625.74,654.74 C642.80,654.94 642.98,654.92 643.48,652.72 C643.76,651.50 644.88,646.45 645.98,641.50 C648.27,631.15 648.79,628.74 650.11,628.17 C650.51,628.00 650.98,628.00 651.60,628.00 L 651.69 628.00 C654.11,628.00 666.85,630.75 686.50,635.51 C707.82,640.67 717.98,642.99 730.01,645.43 C736.88,646.82 745.11,648.65 748.30,649.48 C751.49,650.32 755.44,651.00 757.07,651.00 C758.86,651.00 759.66,650.77 760.17,649.67 C759.88,651.01 759.62,652.46 759.51,653.50 C759.11,657.17 734.06,765.09 733.33,766.27 C733.05,766.73 726.44,766.85 718.66,766.52 C710.87,766.20 661.08,764.81 608.00,763.43 C452.71,759.41 415.61,758.27 413.75,757.51 C413.35,757.34 413.02,757.26 412.75,757.26 C413.48,755.98 419.55,747.92 426.28,739.28 C433.05,730.60 439.46,722.31 440.54,720.86 C441.62,719.41 447.90,711.34 454.50,702.92 C461.10,694.50 467.40,686.39 468.50,684.89 C470.85,681.69 506.89,635.88 512.00,629.60 C513.20,628.13 515.73,624.94 518.61,621.29 C513.45,628.11 508.96,634.27 509.17,634.45 C509.80,634.97 566.44,636.96 599.40,637.63 C581.02,637.27 559.17,636.71 550.50,636.39 L 534.50 635.80 L 530.51 642.15 C525.68,649.84 525.45,650.57 527.56,651.39 C528.95,651.92 560.85,653.21 599.50,654.29 ZM 608.63 200.16 C603.65,217.32 602.93,240.15 606.70,256.42 C605.85,253.53 605.13,251.29 604.81,250.69 C603.52,248.22 602.81,248.90 592.27,262.66 C571.63,289.61 564.17,299.25 551.00,315.98 L 545.50 322.96 L 535.99 322.35 L 527.65 321.82 C527.86,321.65 528.00,321.37 528.00,321.05 C528.00,320.53 534.96,309.51 543.48,296.55 L 558.95 273.00 L 553.33 273.00 C545.90,273.00 463.14,271.20 441.44,270.56 L 424.38 270.06 L 422.04 279.78 C418.41,294.85 418.01,296.00 416.42,296.00 C415.33,296.00 331.50,276.58 305.11,270.25 C306.07,270.45 306.68,270.55 306.75,270.51 C306.88,270.42 308.10,265.43 309.45,259.42 C310.80,253.41 316.00,230.95 320.99,209.50 C325.99,188.05 330.58,168.07 331.20,165.11 L 332.33 159.72 L 349.92 160.37 C359.59,160.72 387.08,161.24 411.00,161.51 C434.92,161.79 457.20,162.25 460.50,162.54 C463.80,162.82 501.83,163.94 545.00,165.01 L 623.50 166.96 L 626.50 163.23 C627.47,162.02 629.02,160.21 630.62,158.39 C621.21,169.58 612.97,185.17 608.63,200.16 ZM 762.91 798.56 C763.57,798.15 764.00,794.32 764.00,788.88 C764.00,781.21 765.12,775.02 771.57,747.19 C780.37,709.19 787.62,678.20 792.11,659.39 C792.04,659.75 792.00,659.98 792.00,660.07 C792.00,660.48 794.16,661.11 796.80,661.47 C799.45,661.84 801.25,661.88 802.23,662.80 C804.18,664.62 802.96,669.82 798.81,687.52 C798.43,689.13 798.03,690.84 797.61,692.66 C793.91,708.52 789.10,729.15 786.92,738.50 C784.74,747.85 781.43,762.03 779.55,770.00 C777.68,777.97 774.45,791.81 772.38,800.75 L 768.61 817.00 L 752.06 816.84 C742.95,816.75 723.80,816.35 709.50,815.94 C695.20,815.53 665.05,814.69 642.50,814.07 C619.95,813.45 577.42,812.29 548.00,811.48 C518.58,810.68 468.43,809.32 436.58,808.46 C404.72,807.61 378.28,806.67 377.83,806.39 C375.49,804.95 377.89,800.82 387.45,789.84 C388.76,788.34 391.02,785.55 393.45,782.47 C390.67,786.47 389.01,789.34 389.42,789.75 C389.71,790.05 429.67,791.35 478.22,792.66 C526.78,793.97 603.85,796.13 649.50,797.46 C728.35,799.76 760.46,800.07 762.91,798.56 ZM 470.63 347.63 C482.47,329.94 486.92,322.69 486.47,321.95 C486.15,321.43 479.86,321.00 472.51,321.00 C460.63,321.00 459.08,321.20 458.62,322.75 C458.34,323.71 457.17,328.55 456.02,333.50 C452.15,350.16 452.11,350.26 449.68,349.73 C443.18,348.32 385.33,334.74 361.50,329.03 C352.70,326.92 341.67,324.43 337.00,323.50 C322.13,320.53 302.08,315.98 299.40,314.96 C296.96,314.04 296.83,313.63 297.15,308.29 L 297.50 302.61 L 290.50 300.79 C286.65,299.78 277.42,297.58 270.00,295.89 C262.58,294.19 256.18,292.51 255.78,292.13 C255.74,292.10 255.73,291.99 255.73,291.81 C255.73,291.98 255.74,292.09 255.78,292.12 C256.18,292.48 261.67,293.96 268.00,295.41 C274.33,296.85 284.23,299.15 290.00,300.52 C295.77,301.89 312.20,305.68 326.50,308.95 C340.80,312.22 371.92,319.42 395.66,324.95 C439.00,335.04 441.95,335.63 442.06,334.25 C442.10,333.84 443.81,326.76 445.86,318.53 L 449.60 303.55 L 474.05 303.87 C487.50,304.04 498.65,304.33 498.82,304.50 C499.07,304.74 485.68,325.19 470.63,347.63 ZM 532.53 603.57 C533.17,602.77 533.62,602.22 533.81,602.01 C534.53,601.18 537.71,597.12 540.87,593.00 C553.82,576.12 574.63,549.20 591.06,528.09 C600.65,515.76 610.93,502.49 613.90,498.59 C631.69,475.27 670.43,425.90 671.80,424.80 C672.85,423.97 672.62,424.76 671.15,427.00 C669.90,428.92 668.18,432.05 667.34,433.94 C666.50,435.84 663.94,440.09 661.66,443.40 C659.37,446.70 655.70,452.39 653.50,456.04 C651.30,459.69 646.35,467.36 642.50,473.09 C638.65,478.82 635.28,483.95 635.00,484.50 C634.47,485.56 616.35,513.11 612.31,519.00 C609.97,522.41 590.54,551.56 574.81,575.28 C570.52,581.75 567.00,587.26 567.00,587.51 C567.00,587.76 565.20,590.33 563.00,593.23 C559.06,598.43 558.08,601.73 560.08,602.98 C560.06,602.97 560.04,602.97 560.03,602.96 C559.22,602.52 557.87,602.49 557.03,602.88 C556.19,603.27 550.62,603.34 544.65,603.04 C538.68,602.74 533.49,602.72 533.11,603.00 C533.00,603.08 532.80,603.28 532.53,603.57 ZM 406.31 765.80 C407.24,764.63 408.00,763.68 408.50,763.08 C409.59,761.78 410.79,760.21 411.67,758.94 C411.14,759.95 410.03,761.50 408.75,762.96 C407.94,763.88 407.13,764.83 406.31,765.80 ZM 798.73 631.83 C797.36,637.89 795.67,644.99 794.03,651.41 C794.19,650.75 794.34,650.11 794.49,649.50 C796.28,642.14 797.67,636.35 798.73,631.83 ZM 801.55 617.22 C800.66,616.72 762.81,607.71 721.57,598.05 C763.08,607.77 801.16,616.82 801.54,617.21 C801.54,617.21 801.55,617.21 801.55,617.22 ZM 760.97 646.58 C761.24,645.14 761.45,643.74 761.46,643.16 C761.49,642.36 759.87,641.34 757.36,640.42 C759.88,641.34 761.52,642.35 761.55,643.16 C761.58,643.76 761.33,645.18 760.97,646.58 ZM 295.10 266.65 C295.45,267.40 296.81,268.11 299.25,268.82 C296.95,268.25 295.47,267.47 295.10,266.65 ZM 609.67 276.08 C608.47,278.02 606.22,281.08 602.18,286.57 C606.23,281.07 608.47,278.01 609.67,276.08 ZM 525.03 324.54 L 524.99 324.62 C524.92,324.75 524.85,324.88 524.78,325.02 C524.83,324.92 524.88,324.83 524.92,324.75 C524.96,324.68 524.99,324.61 525.03,324.54 Z" fill="rgb(20,122,181)"/>
<path d="M 662.50 916.00 C662.90,916.65 662.78,917.62 662.23,918.17 C661.56,918.84 660.98,918.78 660.50,918.00 C660.10,917.35 660.22,916.38 660.77,915.83 C661.44,915.16 662.02,915.22 662.50,916.00 Z" fill="rgb(38,73,52)"/>
<path d="M 0.00 0.00 L 1024.00 0.00 L 1024.00 1024.00 L 0.00 1024.00 ZM 315.99 619.18 C332.15,598.21 348.66,576.88 393.23,519.40 C406.83,501.85 421.76,481.88 426.40,475.00 C434.48,463.02 492.13,375.56 509.79,348.50 C514.45,341.35 519.44,333.70 520.88,331.50 C522.08,329.67 523.53,327.27 524.44,325.64 C524.58,325.74 525.11,325.48 526.13,324.93 C527.36,324.27 530.64,323.40 533.43,322.99 L 537.24 322.43 L 545.50 322.96 L 551.00 315.98 C564.17,299.25 571.63,289.61 592.27,262.66 C602.81,248.90 603.52,248.22 604.81,250.69 C605.13,251.29 605.85,253.53 606.70,256.42 C606.95,257.48 607.21,258.50 607.49,259.50 C608.90,264.45 610.32,269.85 610.66,271.50 C610.71,271.77 610.78,272.05 610.86,272.34 C610.88,272.49 610.90,272.63 610.90,272.78 C610.93,273.63 610.65,274.48 609.67,276.08 L 609.67 276.08 C609.61,276.17 609.56,276.26 609.50,276.36 C609.38,276.55 609.35,276.59 609.32,276.63 C608.14,278.47 606.13,281.20 602.85,285.65 L 602.18 286.57 L 601.81 287.06 C593.89,297.81 568.11,331.77 554.43,349.50 C551.45,353.35 545.53,361.03 541.26,366.57 C530.33,380.75 511.38,405.25 505.77,412.44 C501.37,418.08 493.49,428.17 481.50,443.51 C476.24,450.24 467.11,461.77 445.49,489.00 C438.29,498.08 431.52,506.68 430.45,508.13 C429.38,509.57 423.10,517.41 416.50,525.55 C405.10,539.59 399.21,546.97 389.00,559.98 C386.52,563.13 379.10,572.34 372.50,580.44 C365.90,588.55 358.69,597.50 356.48,600.34 C354.27,603.18 350.45,608.00 347.98,611.05 C345.52,614.11 336.45,625.36 327.84,636.05 C313.12,654.34 303.04,666.79 300.30,670.07 C299.64,670.85 297.59,673.30 295.74,675.50 C293.90,677.70 291.29,680.90 289.94,682.60 C288.60,684.31 284.80,689.03 281.50,693.10 C270.56,706.61 268.95,709.05 267.83,713.93 C266.19,721.02 268.21,727.20 274.12,733.16 C279.21,738.31 280.91,738.93 289.06,738.61 C293.39,738.45 295.55,737.75 298.81,735.45 C301.11,733.83 306.02,728.67 309.73,724.00 C316.36,715.64 332.31,696.19 340.39,686.63 C342.65,683.95 344.95,680.99 345.50,680.05 C346.38,678.55 350.78,673.09 373.48,645.36 C376.24,641.99 381.33,635.69 384.78,631.36 C388.23,627.04 394.54,619.22 398.80,614.00 C403.05,608.78 408.76,601.58 411.47,598.00 C414.18,594.42 420.49,586.55 425.49,580.50 C430.48,574.45 436.67,566.80 439.24,563.50 C441.81,560.20 453.94,544.86 466.20,529.40 C478.47,513.95 492.52,496.18 497.43,489.90 C502.34,483.63 506.95,477.83 507.68,477.00 C508.41,476.17 511.96,471.67 515.58,467.00 C519.20,462.33 523.45,456.92 525.04,455.00 C526.62,453.08 529.84,448.97 532.21,445.87 C543.37,431.23 560.04,409.77 565.50,403.00 C568.83,398.88 574.09,392.12 577.20,388.00 C580.31,383.88 584.79,377.97 587.17,374.87 C591.55,369.17 593.11,367.11 599.21,359.00 C622.39,328.16 634.38,313.00 635.60,313.00 C636.42,313.00 638.18,314.09 639.51,315.42 C640.84,316.75 644.49,319.67 647.62,321.91 C650.74,324.15 653.90,326.83 654.63,327.88 C655.36,328.92 657.04,330.04 658.36,330.38 C659.54,330.67 662.62,332.10 665.56,333.70 C662.51,332.05 659.24,330.60 657.95,330.34 C657.38,330.23 656.98,330.08 656.57,330.07 C654.96,330.04 653.31,332.14 641.76,346.85 C640.75,348.13 639.67,349.51 638.50,351.00 C631.90,359.39 624.70,368.40 622.50,371.01 C620.30,373.63 616.59,378.18 614.25,381.13 C605.75,391.89 600.37,398.73 594.00,406.89 C590.42,411.48 584.58,418.91 581.00,423.42 C577.42,427.93 572.47,434.23 570.00,437.42 C567.53,440.60 565.04,443.73 564.48,444.36 C563.91,444.99 559.74,450.23 555.20,456.00 C550.65,461.77 544.98,468.98 542.59,472.00 C540.20,475.02 537.15,479.13 535.81,481.12 C534.46,483.11 531.70,486.71 529.67,489.12 C527.64,491.53 520.56,500.48 513.95,509.00 C507.34,517.53 500.70,526.05 499.21,527.95 C493.19,535.62 457.39,582.30 452.00,589.52 C450.62,591.36 444.77,599.05 439.00,606.61 C423.46,626.95 423.26,627.21 420.50,631.00 C419.10,632.92 416.05,637.04 413.72,640.14 C403.71,653.49 387.56,674.96 383.37,680.50 C378.89,686.40 363.57,707.18 342.29,736.22 C336.35,744.31 329.07,754.21 326.10,758.22 C316.44,771.27 314.74,778.47 319.45,786.51 C321.73,790.40 326.50,794.84 330.00,796.33 C332.88,797.55 343.85,796.27 347.19,794.32 C348.99,793.27 351.83,790.56 353.49,788.31 C362.89,775.54 373.13,761.56 384.09,746.50 C397.24,728.43 453.54,652.92 461.99,642.00 C466.82,635.78 470.14,631.43 495.98,597.50 C502.26,589.25 514.40,573.51 522.95,562.52 C531.50,551.53 538.95,541.80 539.50,540.90 C540.05,539.99 544.40,534.36 549.16,528.38 C553.93,522.39 566.46,506.48 577.01,493.00 C606.82,454.92 616.00,443.26 622.75,434.86 C626.19,430.59 629.00,426.64 629.00,426.09 C629.00,425.55 629.61,424.74 630.35,424.30 C631.09,423.86 636.17,417.88 641.63,411.00 C647.10,404.12 657.86,390.68 665.54,381.13 C673.22,371.58 681.44,361.23 683.80,358.13 C686.17,355.03 689.21,351.35 690.55,349.95 C693.15,347.24 693.60,345.19 691.92,344.08 C705.42,347.98 732.49,347.81 747.50,343.69 C770.02,337.50 782.51,330.37 799.19,314.21 C816.89,297.05 827.24,278.17 832.56,253.33 C835.07,241.60 834.84,221.31 832.03,208.00 C822.68,163.66 788.19,129.08 743.64,119.37 C734.74,117.43 711.24,116.46 704.32,117.74 C699.19,118.69 686.08,118.45 457.00,113.08 C409.42,111.96 357.90,110.81 342.50,110.51 C327.10,110.21 309.66,109.71 303.75,109.40 L 293.00 108.83 L 293.00 118.68 C293.00,119.18 293.00,119.64 293.00,120.08 L 293.00 120.13 L 293.01 120.26 L 293.01 120.37 L 293.01 120.45 C293.01,121.36 293.01,122.18 293.00,123.00 C292.84,129.88 291.13,136.74 275.95,201.50 C270.92,222.95 266.42,242.30 265.96,244.50 C265.50,246.70 262.86,258.17 260.09,269.98 C257.56,280.77 255.72,290.02 255.73,291.81 C255.73,291.99 255.74,292.10 255.78,292.13 C256.18,292.51 262.58,294.19 270.00,295.89 C277.42,297.58 286.65,299.78 290.50,300.79 L 297.50 302.61 L 297.15 308.29 C296.83,313.63 296.96,314.04 299.40,314.96 C301.67,315.83 316.43,319.23 329.93,322.05 C329.78,322.04 329.67,322.03 329.60,322.03 C327.09,322.10 332.93,324.49 338.50,325.67 C341.80,326.37 348.77,327.89 354.00,329.04 C359.23,330.19 365.30,331.52 367.50,331.99 C378.21,334.26 385.95,336.13 390.50,337.52 C394.78,338.83 400.63,340.16 423.00,344.91 C424.92,345.32 427.48,346.18 428.68,346.82 C429.89,347.47 432.36,348.04 434.18,348.08 C436.01,348.12 439.52,348.75 442.00,349.47 C447.72,351.14 452.23,350.94 452.75,349.00 C453.08,347.79 452.97,347.76 452.20,348.86 C452.05,349.07 451.87,349.24 451.63,349.36 C452.29,348.55 452.91,346.56 454.00,342.10 C453.40,344.71 453.00,346.56 453.00,346.75 C453.00,347.07 453.32,347.01 453.72,346.62 C454.59,345.74 456.53,338.53 458.04,330.50 C458.67,327.20 459.64,323.94 460.20,323.27 C460.90,322.42 464.46,322.07 471.60,322.15 C483.07,322.28 484.99,323.12 483.02,327.19 C482.20,328.86 482.43,328.84 484.07,326.93 C481.65,330.97 477.32,337.63 470.64,347.62 L 470.63 347.63 C468.44,350.90 466.21,354.21 463.99,357.50 C460.65,362.45 455.63,370.10 452.83,374.50 C450.04,378.90 444.32,387.60 440.13,393.84 C435.93,400.08 430.91,407.73 428.96,410.84 C427.01,413.95 421.50,422.28 416.71,429.34 C411.92,436.40 408.00,442.39 408.00,442.66 C408.00,442.93 405.81,446.38 403.13,450.33 C400.45,454.27 395.29,462.00 391.67,467.50 C388.05,473.00 382.41,481.55 379.13,486.50 C375.86,491.45 368.01,503.38 361.71,513.00 C355.40,522.62 347.15,535.16 343.37,540.85 C339.59,546.54 333.92,555.31 330.77,560.35 C327.62,565.38 323.01,572.42 320.53,576.00 C318.05,579.58 312.11,588.47 307.32,595.76 L 298.63 609.02 L 298.25 625.11 C297.99,636.52 298.19,641.00 298.96,640.52 C299.56,640.15 307.22,630.55 315.99,619.18 ZM 532.53 603.57 C530.48,605.83 524.16,613.94 518.61,621.29 C515.73,624.94 513.20,628.13 512.00,629.60 C506.89,635.88 470.85,681.69 468.50,684.89 C467.40,686.39 461.10,694.50 454.50,702.92 C447.90,711.34 441.62,719.41 440.54,720.86 C439.46,722.31 433.05,730.60 426.28,739.28 C419.55,747.92 413.48,755.98 412.75,757.26 C412.26,757.26 412.00,757.52 412.00,758.02 C412.00,758.22 411.88,758.53 411.67,758.94 C410.79,760.21 409.59,761.78 408.50,763.08 C408.00,763.68 407.24,764.63 406.31,765.80 C401.54,771.45 396.72,777.74 393.45,782.47 C391.02,785.55 388.76,788.34 387.45,789.84 C380.23,798.14 377.09,802.52 377.00,804.79 C376.65,804.35 376.23,804.37 375.75,804.85 C375.22,805.38 375.08,806.32 375.46,806.93 C376.30,808.30 377.59,807.53 377.49,806.14 C377.59,806.23 377.70,806.32 377.83,806.39 C378.28,806.67 404.72,807.61 436.58,808.46 C453.84,808.92 476.48,809.54 498.28,810.13 C479.67,809.66 455.37,809.03 435.55,808.48 C407.53,807.70 384.43,807.24 384.21,807.46 C382.97,808.69 402.04,809.41 466.50,810.55 C483.00,810.84 507.08,811.43 520.00,811.87 C532.92,812.31 544.74,812.74 546.25,812.83 C547.76,812.93 549.00,812.62 549.00,812.15 C549.00,811.86 543.45,811.47 535.06,811.13 C539.69,811.25 544.03,811.37 548.00,811.48 C567.15,812.01 591.84,812.68 612.97,813.26 C602.23,813.03 590.19,812.81 577.50,812.61 C557.19,812.28 555.88,812.34 569.00,812.98 C577.53,813.39 590.71,813.79 598.31,813.86 C607.23,813.95 611.90,814.35 611.50,815.00 C611.16,815.55 611.33,816.00 611.88,816.00 C612.43,816.00 613.16,815.55 613.50,815.00 C614.22,813.84 618.00,813.63 618.00,814.75 C618.00,815.56 657.73,815.60 658.54,814.80 C658.66,814.67 656.18,814.50 651.63,814.32 C665.78,814.71 681.48,815.14 694.02,815.50 C669.34,814.97 660.71,814.96 661.07,815.35 C661.38,815.69 673.31,816.25 687.57,816.58 C701.83,816.91 725.42,817.51 740.00,817.91 C754.58,818.32 766.95,818.58 767.50,818.49 C769.39,818.20 771.25,812.64 775.19,795.50 C777.52,785.37 778.07,782.94 779.96,774.50 C781.06,769.55 781.94,764.60 781.91,763.50 C781.85,761.64 780.02,768.27 776.56,782.79 C777.68,778.01 778.74,773.45 779.55,770.00 C781.04,763.69 783.42,753.51 785.43,744.90 C783.97,751.25 782.80,756.57 782.54,758.00 C781.50,763.81 783.54,759.13 784.94,752.50 C785.64,749.20 786.82,744.25 787.56,741.50 C790.05,732.26 794.47,712.80 795.31,707.36 C795.57,705.63 796.26,702.71 796.83,700.86 C797.40,699.01 798.29,695.70 798.82,693.50 C799.34,691.30 800.53,686.35 801.46,682.50 C803.34,674.71 804.29,668.98 804.42,664.56 C804.49,661.90 804.05,661.48 800.00,660.30 C797.53,659.59 795.01,658.33 794.40,657.51 C793.78,656.68 793.20,656.43 792.76,656.69 C793.21,654.78 793.64,653.02 794.03,651.41 C795.67,644.99 797.36,637.89 798.73,631.83 C801.25,621.10 801.90,617.57 801.56,617.23 C801.56,617.23 801.55,617.22 801.55,617.22 C801.55,617.21 801.54,617.21 801.54,617.21 C801.16,616.82 763.19,607.80 721.75,598.10 L 721.57 598.05 C672.19,586.49 617.96,573.98 616.47,573.99 C614.67,574.00 614.10,575.57 611.51,587.71 C609.76,595.89 607.91,602.09 606.90,603.10 C605.40,604.60 602.93,604.72 583.36,604.26 C571.54,603.98 561.19,603.41 560.08,602.98 C558.08,601.73 559.06,598.43 563.00,593.23 C565.20,590.33 567.00,587.76 567.00,587.51 C567.00,587.26 570.52,581.75 574.81,575.28 C590.54,551.56 609.97,522.41 612.31,519.00 C616.35,513.11 634.47,485.56 635.00,484.50 C635.28,483.95 638.65,478.82 642.50,473.09 C646.35,467.36 651.30,459.69 653.50,456.04 C653.64,455.82 653.78,455.58 653.92,455.34 L 655.88 453.60 C657.04,452.55 658.00,451.23 658.00,450.66 C658.00,450.09 659.80,447.49 662.00,444.88 C664.20,442.28 666.00,439.87 666.00,439.53 C666.00,439.19 667.74,436.57 669.88,433.71 C672.01,430.84 674.49,426.91 675.39,424.97 C676.28,423.03 678.77,419.32 680.92,416.72 C685.00,411.79 689.61,403.28 688.70,402.37 C688.06,401.73 683.00,404.93 683.00,405.97 C683.00,406.38 681.20,408.76 679.00,411.26 C676.80,413.76 675.00,416.22 675.00,416.71 C675.00,417.21 674.20,418.50 673.22,419.56 C672.24,420.63 670.11,423.30 668.49,425.50 C666.87,427.70 663.27,432.20 660.48,435.50 C657.70,438.80 654.11,443.30 652.52,445.50 C650.92,447.70 648.07,450.98 646.19,452.80 C644.30,454.61 643.02,456.35 643.34,456.67 C643.87,457.20 641.20,460.86 631.06,473.50 C625.16,480.85 617.72,490.49 616.00,493.00 C615.17,494.21 611.61,498.87 608.08,503.35 C604.55,507.83 599.72,513.97 597.35,517.00 C594.99,520.03 592.24,523.40 591.24,524.50 C590.25,525.60 588.04,528.53 586.33,531.00 C584.63,533.47 582.28,536.36 581.12,537.40 C579.95,538.45 579.00,539.81 579.00,540.42 C579.00,541.02 577.98,542.64 576.73,544.01 C572.59,548.55 562.48,561.40 557.66,568.25 C555.04,571.96 551.32,576.68 549.38,578.75 C547.44,580.81 545.11,583.62 544.21,585.00 C543.30,586.38 540.93,589.53 538.93,592.00 C536.94,594.47 534.27,598.24 533.00,600.37 C530.70,604.22 530.70,604.23 532.85,603.08 C532.89,603.06 532.94,603.03 532.99,603.00 C532.85,603.18 532.70,603.36 532.53,603.57 ZM 299.26 268.83 L 299.25 268.82 C296.95,268.25 295.47,267.47 295.10,266.65 C295.03,266.51 295.00,266.37 295.00,266.23 C295.00,265.39 296.30,259.25 297.90,252.60 C299.49,245.94 302.45,233.30 304.48,224.50 C306.51,215.70 309.24,204.00 310.55,198.50 C311.85,193.00 314.74,180.62 316.96,171.00 C319.18,161.38 321.56,151.25 322.25,148.50 L 323.51 143.50 L 342.01 143.74 C363.00,144.01 415.05,145.17 533.50,148.02 C578.60,149.10 620.61,149.99 626.85,149.99 L 638.20 150.00 L 637.55 150.71 C637.81,150.13 637.27,150.00 635.65,150.00 C633.76,150.00 633.22,150.40 633.64,151.50 C633.95,152.32 634.56,153.00 634.98,153.00 C635.17,153.00 635.46,152.87 635.78,152.64 L 632.93 155.75 C632.15,156.60 631.38,157.48 630.62,158.39 L 630.62 158.39 C629.86,159.25 629.11,160.11 628.43,160.91 C632.30,155.89 632.10,155.63 627.78,160.28 L 623.34 165.05 L 601.42 164.57 C589.36,164.30 564.20,163.81 545.50,163.48 C526.80,163.15 509.02,162.48 506.00,162.00 C502.97,161.52 491.73,161.47 481.00,161.90 C471.99,162.26 466.58,162.64 467.36,162.84 C463.61,162.70 461.22,162.60 460.50,162.54 C457.28,162.25 436.01,161.81 412.77,161.53 C413.59,161.42 414.00,161.26 414.00,161.05 C414.00,160.47 412.76,159.99 411.25,159.97 C409.74,159.95 397.70,159.66 384.50,159.32 C350.20,158.43 331.82,158.68 330.98,160.04 C330.59,160.66 329.71,163.72 329.01,166.83 C328.32,169.95 326.90,175.47 325.87,179.11 C324.84,182.74 324.00,186.93 324.00,188.42 C324.00,189.91 323.61,191.89 323.13,192.82 C322.65,193.74 321.94,196.75 321.55,199.50 C320.22,208.80 322.09,203.76 325.21,191.34 C324.09,196.17 322.88,201.38 321.64,206.73 C321.65,206.30 321.48,206.00 321.17,206.00 C320.35,206.00 317.00,216.10 317.00,218.58 C317.00,219.41 316.16,222.88 315.13,226.29 C313.33,232.23 311.34,240.57 307.33,258.87 C306.32,263.48 304.94,267.47 304.25,267.73 C302.71,268.33 302.68,269.41 303.97,269.98 C301.99,269.50 300.40,269.11 299.26,268.83 ZM 627.17 654.50 C627.07,654.60 627.45,654.69 628.18,654.77 C627.41,654.76 626.59,654.75 625.74,654.74 C622.95,654.71 619.96,654.67 617.01,654.62 C617.63,654.51 618.00,654.35 618.00,654.15 C618.00,653.19 598.81,652.00 583.34,652.00 C577.28,652.00 573.00,652.40 573.00,652.98 C573.00,653.19 573.90,653.39 575.55,653.57 C568.30,653.33 561.58,653.09 555.59,652.87 C556.13,652.87 556.68,652.86 557.25,652.85 C567.27,652.72 567.85,652.62 562.50,651.96 C553.55,650.85 546.00,650.87 546.00,652.00 C546.00,652.23 546.58,652.41 547.65,652.55 C535.77,652.06 528.22,651.64 527.56,651.39 C525.45,650.57 525.68,649.84 530.51,642.15 L 534.50 635.80 L 550.50 636.39 C559.17,636.71 581.02,637.27 599.40,637.63 C599.84,637.64 600.28,637.65 600.72,637.66 C628.81,638.21 634.01,638.10 634.39,636.91 C634.64,636.13 635.89,630.55 637.17,624.50 L 639.50 613.50 L 642.50 613.83 C644.15,614.01 650.22,615.27 656.00,616.62 C661.78,617.98 673.25,620.66 681.50,622.58 C689.75,624.50 701.00,627.15 706.50,628.47 C726.48,633.28 746.58,637.92 750.21,638.55 C752.89,639.03 755.39,639.69 757.36,640.42 C759.87,641.34 761.49,642.36 761.46,643.16 C761.45,643.74 761.24,645.14 760.97,646.58 C760.89,646.89 760.81,647.20 760.72,647.50 C760.54,648.11 760.35,648.87 760.17,649.67 C759.66,650.77 758.86,651.00 757.07,651.00 C755.44,651.00 751.49,650.32 748.30,649.48 C745.11,648.65 736.88,646.82 730.01,645.43 C728.24,645.07 726.51,644.71 724.77,644.35 C725.53,644.38 726.00,644.24 726.00,643.94 C726.00,643.44 724.76,642.77 723.25,642.45 C721.74,642.13 719.47,641.44 718.20,640.93 C716.94,640.42 714.82,640.00 713.50,640.00 C712.18,640.00 710.06,639.60 708.80,639.11 C706.48,638.22 697.56,636.17 686.50,633.97 C683.20,633.32 676.90,631.75 672.50,630.49 C662.50,627.62 654.71,626.00 650.95,626.00 C647.39,626.00 645.48,629.23 644.72,636.56 C644.05,643.01 642.05,650.03 640.29,652.12 C639.36,653.22 637.13,653.78 633.30,653.87 C630.20,653.94 627.44,654.22 627.17,654.50 ZM 662.50 916.00 C662.02,915.22 661.44,915.16 660.77,915.83 C660.22,916.38 660.10,917.35 660.50,918.00 C660.98,918.78 661.56,918.84 662.23,918.17 C662.78,917.62 662.90,916.65 662.50,916.00 ZM 486.46 322.34 C485.36,321.82 479.92,321.37 472.74,321.22 C467.52,321.12 464.28,321.08 462.24,321.20 C464.26,321.04 467.45,321.00 472.51,321.00 C479.86,321.00 486.15,321.43 486.47,321.95 C486.51,322.02 486.51,322.15 486.46,322.34 ZM 343.80 160.14 L 358.39 160.46 C367.57,160.66 378.38,160.93 387.11,161.18 C370.99,160.92 356.42,160.61 349.92,160.37 ZM 771.94 802.66 L 768.57 817.31 L 748.06 816.79 C749.54,816.81 750.88,816.83 752.06,816.84 L 768.61 817.00 ZM 305.34 270.30 C306.48,270.29 307.19,268.76 309.80,257.86 C309.67,258.46 309.55,258.98 309.45,259.42 C308.10,265.43 306.88,270.42 306.75,270.51 C306.69,270.55 306.17,270.47 305.34,270.30 ZM 801.91 662.55 C802.39,662.70 802.76,662.85 802.97,662.98 C803.05,663.03 803.13,663.08 803.20,663.13 C803.65,663.47 803.79,664.20 802.80,669.24 C803.39,665.48 803.21,663.71 802.23,662.80 C802.14,662.71 802.03,662.63 801.91,662.55 ZM 536.43 598.74 C537.49,597.20 539.07,595.10 540.81,592.88 C544.01,588.82 552.70,577.62 560.12,568.00 C565.18,561.44 573.26,551.02 580.92,541.14 C566.73,559.43 551.27,579.45 540.87,593.00 C539.29,595.06 537.71,597.11 536.43,598.74 ZM 532.34 322.12 C528.38,322.04 526.86,322.23 525.86,323.20 C526.39,322.48 526.89,322.00 527.17,322.00 C527.35,322.00 527.52,321.93 527.65,321.82 ZM 718.52 643.00 C710.27,641.19 700.95,639.00 686.50,635.51 C685.39,635.24 684.29,634.97 683.23,634.72 C684.91,635.12 686.67,635.54 688.50,635.98 C695.10,637.56 704.78,639.83 710.00,641.03 C712.94,641.70 716.05,642.42 718.52,643.00 ZM 542.50 164.94 L 547.41 165.07 L 545.00 165.01 C521.40,164.42 499.33,163.83 483.64,163.36 C497.56,163.74 519.33,164.33 542.50,164.94 ZM 687.52 342.71 C683.07,341.43 677.19,339.24 672.35,337.10 C676.51,338.91 681.72,340.84 687.52,342.71 ZM 398.33 337.76 C388.58,335.50 381.30,333.77 372.03,331.54 C379.79,333.39 389.00,335.56 398.33,337.76 ZM 792.07 659.59 C792.27,660.23 792.92,660.66 794.25,661.01 C792.90,660.69 792.00,660.33 792.00,660.07 C792.00,660.00 792.03,659.83 792.07,659.59 ZM 316.59 228.45 C318.68,219.32 320.43,211.82 321.17,208.73 L 320.99 209.50 C319.51,215.88 318.00,222.35 316.59,228.45 ZM 659.44 446.68 C660.25,445.46 661.01,444.33 661.66,443.40 C663.94,440.10 666.49,435.85 667.34,433.95 C666.49,435.85 663.94,440.11 661.66,443.43 C660.94,444.47 660.18,445.59 659.44,446.68 ZM 330.78 167.05 C330.94,166.27 331.11,165.49 331.28,164.70 L 332.29 159.89 L 332.30 159.89 L 331.20 165.11 C331.12,165.49 330.98,166.15 330.78,167.05 ZM 659.31 629.27 C655.27,628.44 652.65,628.00 651.69,628.00 C652.68,628.00 655.17,628.41 659.31,629.27 ZM 458.72 322.48 C458.69,322.56 458.66,322.64 458.64,322.72 C458.51,323.17 458.27,324.09 457.97,325.31 C458.28,324.04 458.52,323.11 458.62,322.75 C458.65,322.66 458.68,322.57 458.72,322.48 ZM 643.32 653.33 C643.38,653.15 643.43,652.96 643.47,652.75 C643.76,651.51 644.88,646.45 645.98,641.50 C644.88,646.45 643.76,651.50 643.48,652.72 C643.43,652.94 643.38,653.14 643.32,653.33 Z" fill="rgb(47,191,113)"/>
<path d="M 659.44 446.68 C660.18,445.59 660.94,444.47 661.66,443.43 C663.83,440.26 666.26,436.24 667.21,434.23 C667.26,434.13 667.30,434.04 667.34,433.95 L 667.34 433.95 L 667.34 433.94 C668.18,432.05 669.90,428.92 671.15,427.00 C672.62,424.76 672.85,423.97 671.80,424.80 C670.90,425.52 654.08,446.81 637.56,468.00 C639.43,465.59 641.32,463.16 643.18,460.78 C654.63,446.08 664.00,433.77 664.00,433.42 C664.00,432.54 679.83,412.38 681.77,410.78 C683.16,409.64 683.19,409.77 682.02,412.00 C681.04,413.89 662.66,442.09 656.35,451.45 C657.37,449.85 658.44,448.20 659.44,446.68 ZM 375.75 804.85 C376.23,804.37 376.65,804.35 377.00,804.79 C376.97,805.36 377.14,805.80 377.49,806.14 C377.59,807.53 376.30,808.30 375.46,806.93 C375.08,806.32 375.22,805.38 375.75,804.85 ZM 655.88 453.60 L 653.92 455.34 C654.09,455.08 654.26,454.80 654.43,454.52 C654.60,454.51 655.07,454.19 655.77,453.60 C657.00,452.55 658.00,451.23 658.00,450.66 C658.00,451.23 657.04,452.55 655.88,453.60 ZM 618.98 491.96 C617.15,494.34 615.45,496.56 613.90,498.59 C611.04,502.35 601.36,514.85 592.07,526.80 C601.41,514.79 611.75,501.41 615.43,496.59 C616.24,495.52 617.46,493.93 618.98,491.96 Z" fill="rgb(32,162,146)"/>
<path d="M 536.43 598.74 C535.14,600.37 534.17,601.59 533.81,602.01 C533.67,602.17 533.39,602.51 532.99,603.00 C532.94,603.03 532.89,603.06 532.85,603.08 C530.70,604.23 530.70,604.22 533.00,600.37 C534.27,598.24 536.94,594.47 538.93,592.00 C540.93,589.53 543.30,586.38 544.21,585.00 C545.11,583.62 547.44,580.81 549.38,578.75 C551.32,576.68 555.04,571.96 557.66,568.25 C562.48,561.40 572.59,548.55 576.73,544.01 C577.98,542.64 579.00,541.02 579.00,540.42 C579.00,539.81 579.95,538.45 581.12,537.40 C582.28,536.36 584.63,533.47 586.33,531.00 C588.04,528.53 590.25,525.60 591.24,524.50 C592.24,523.40 594.99,520.03 597.35,517.00 C599.72,513.97 604.55,507.83 608.08,503.35 C611.61,498.87 615.17,494.21 616.00,493.00 C617.72,490.49 625.16,480.85 631.06,473.50 C641.20,460.86 643.87,457.20 643.34,456.67 C643.02,456.35 644.30,454.61 646.19,452.80 C648.07,450.98 650.92,447.70 652.52,445.50 C654.11,443.30 657.70,438.80 660.48,435.50 C663.27,432.20 666.87,427.70 668.49,425.50 C670.11,423.30 672.24,420.63 673.22,419.56 C674.20,418.50 675.00,417.21 675.00,416.71 C675.00,416.22 676.80,413.76 679.00,411.26 C681.20,408.76 683.00,406.38 683.00,405.97 C683.00,404.93 688.06,401.73 688.70,402.37 C689.61,403.28 685.00,411.79 680.92,416.72 C678.77,419.32 676.28,423.03 675.39,424.97 C674.49,426.91 672.01,430.84 669.88,433.71 C667.74,436.57 666.00,439.19 666.00,439.53 C666.00,439.87 664.20,442.28 662.00,444.88 C659.80,447.49 658.00,450.09 658.00,450.66 C658.00,451.23 657.00,452.55 655.77,453.60 C655.07,454.19 654.60,454.51 654.43,454.52 C655.02,453.56 655.68,452.52 656.35,451.45 C662.66,442.09 681.04,413.89 682.02,412.00 C683.19,409.77 683.16,409.64 681.77,410.78 C679.83,412.38 664.00,432.54 664.00,433.42 C664.00,433.77 654.63,446.08 643.18,460.78 C641.32,463.16 639.44,465.58 637.57,467.99 L 637.56 468.00 C630.97,476.44 624.44,484.86 618.98,491.96 L 618.97 491.97 C617.46,493.94 616.24,495.52 615.43,496.59 C611.75,501.41 601.41,514.79 592.07,526.80 C591.73,527.23 591.40,527.66 591.06,528.09 C587.82,532.25 584.41,536.64 580.92,541.14 C573.26,551.02 565.18,561.44 560.12,568.00 C552.70,577.62 544.01,588.82 540.81,592.88 C539.07,595.10 537.49,597.20 536.43,598.74 ZM 542.50 164.94 C519.33,164.33 497.56,163.74 483.64,163.36 C476.92,163.16 471.37,162.98 467.36,162.84 C466.58,162.64 471.99,162.26 481.00,161.90 C491.73,161.47 502.97,161.52 506.00,162.00 C509.02,162.48 526.80,163.15 545.50,163.48 C564.20,163.81 589.36,164.30 601.42,164.57 L 623.34 165.05 L 627.78 160.28 C632.10,155.63 632.30,155.89 628.43,160.91 C627.68,161.79 627.01,162.60 626.50,163.23 L 623.50 166.96 L 547.41 165.07 ZM 627.17 654.50 C627.44,654.22 630.20,653.94 633.30,653.87 C637.13,653.78 639.36,653.22 640.29,652.12 C642.05,650.03 644.05,643.01 644.72,636.56 C645.48,629.23 647.39,626.00 650.95,626.00 C654.71,626.00 662.50,627.62 672.50,630.49 C676.90,631.75 683.20,633.32 686.50,633.97 C697.56,636.17 706.48,638.22 708.80,639.11 C710.06,639.60 712.18,640.00 713.50,640.00 C714.82,640.00 716.94,640.42 718.20,640.93 C719.47,641.44 721.74,642.13 723.25,642.45 C724.76,642.77 726.00,643.44 726.00,643.94 C726.00,644.24 725.53,644.38 724.77,644.35 C722.71,643.91 720.65,643.47 718.52,643.00 C716.05,642.42 712.94,641.70 710.00,641.03 C704.78,639.83 695.10,637.56 688.50,635.98 C686.67,635.54 684.91,635.12 683.23,634.72 C672.97,632.25 664.81,630.40 659.31,629.27 C655.17,628.41 652.68,628.00 651.69,628.00 L 651.60 628.00 C650.98,628.00 650.51,628.00 650.11,628.17 C648.79,628.74 648.27,631.15 645.98,641.50 C644.88,646.45 643.76,651.51 643.47,652.75 C643.43,652.96 643.38,653.15 643.32,653.33 C642.80,654.83 641.25,654.91 628.18,654.77 C627.45,654.69 627.07,654.60 627.17,654.50 ZM 435.55 808.48 C455.37,809.03 479.67,809.66 498.28,810.13 C511.28,810.48 523.98,810.83 535.06,811.13 L 535.06 811.13 C543.45,811.47 549.00,811.86 549.00,812.15 C549.00,812.62 547.76,812.93 546.25,812.83 C544.74,812.74 532.92,812.31 520.00,811.87 C507.08,811.43 483.00,810.84 466.50,810.55 C402.04,809.41 382.97,808.69 384.21,807.46 C384.43,807.24 407.53,807.70 435.55,808.48 ZM 343.80 160.14 L 332.33 159.72 L 332.30 159.89 L 332.29 159.89 L 331.28 164.70 C331.11,165.49 330.94,166.27 330.78,167.05 L 330.78 167.05 C329.86,171.13 327.78,180.23 325.21,191.34 C322.09,203.76 320.22,208.80 321.55,199.50 C321.94,196.75 322.65,193.74 323.13,192.82 C323.61,191.89 324.00,189.91 324.00,188.42 C324.00,186.93 324.84,182.74 325.87,179.11 C326.90,175.47 328.32,169.95 329.01,166.83 C329.71,163.72 330.59,160.66 330.98,160.04 C331.82,158.68 350.20,158.43 384.50,159.32 C397.70,159.66 409.74,159.95 411.25,159.97 C412.76,159.99 414.00,160.47 414.00,161.05 C414.00,161.26 413.59,161.42 412.77,161.53 C412.18,161.53 411.59,161.52 411.00,161.51 C403.17,161.42 394.96,161.31 387.11,161.18 C378.38,160.93 367.57,160.66 358.39,160.46 ZM 771.94 802.66 L 772.38 800.75 C773.55,795.68 775.10,789.04 776.56,782.79 C780.02,768.27 781.85,761.64 781.91,763.50 C781.94,764.60 781.06,769.55 779.96,774.50 C778.07,782.94 777.52,785.37 775.19,795.50 C771.25,812.64 769.39,818.20 767.50,818.49 C766.95,818.58 754.58,818.32 740.00,817.91 C725.42,817.51 701.83,816.91 687.57,816.58 C673.31,816.25 661.38,815.69 661.07,815.35 C660.71,814.96 669.34,814.97 694.02,815.50 C700.10,815.67 705.44,815.82 709.50,815.94 C721.95,816.29 738.08,816.65 748.06,816.79 L 768.57 817.31 ZM 398.33 337.76 C421.62,343.24 445.63,348.85 449.68,349.73 C450.54,349.92 451.10,350.03 451.63,349.36 C451.87,349.24 452.05,349.07 452.20,348.86 C452.97,347.76 453.08,347.79 452.75,349.00 C452.23,350.94 447.72,351.14 442.00,349.47 C439.52,348.75 436.01,348.12 434.18,348.08 C432.36,348.04 429.89,347.47 428.68,346.82 C427.48,346.18 424.92,345.32 423.00,344.91 C400.63,340.16 394.78,338.83 390.50,337.52 C385.95,336.13 378.21,334.26 367.50,331.99 C365.30,331.52 359.23,330.19 354.00,329.04 C348.77,327.89 341.80,326.37 338.50,325.67 C332.93,324.49 327.09,322.10 329.60,322.03 C329.67,322.03 329.78,322.04 329.93,322.05 C332.35,322.56 334.74,323.05 337.00,323.50 C341.67,324.43 352.70,326.92 361.50,329.03 C364.52,329.75 368.09,330.61 372.03,331.54 C381.30,333.77 388.58,335.50 398.33,337.76 ZM 801.91 662.55 C800.88,661.87 799.18,661.80 796.80,661.47 C795.86,661.34 794.99,661.18 794.25,661.01 C792.92,660.66 792.27,660.23 792.07,659.59 C792.08,659.53 792.10,659.46 792.11,659.39 C792.33,658.46 792.55,657.56 792.76,656.69 C793.20,656.43 793.78,656.68 794.40,657.51 C795.01,658.33 797.53,659.59 800.00,660.30 C804.05,661.48 804.49,661.90 804.42,664.56 C804.29,668.98 803.34,674.71 801.46,682.50 C800.53,686.35 799.34,691.30 798.82,693.50 C798.29,695.70 797.40,699.01 796.83,700.86 C796.26,702.71 795.57,705.63 795.31,707.36 C794.47,712.80 790.05,732.26 787.56,741.50 C786.82,744.25 785.64,749.20 784.94,752.50 C783.54,759.13 781.50,763.81 782.54,758.00 C782.80,756.57 783.97,751.26 785.43,744.91 L 785.43 744.90 C785.96,742.62 786.46,740.46 786.92,738.50 C789.10,729.15 793.91,708.52 797.61,692.66 C798.03,690.84 798.43,689.13 798.81,687.52 C800.88,678.70 802.22,672.98 802.80,669.24 C803.79,664.20 803.65,663.47 803.20,663.13 C803.13,663.08 803.05,663.03 802.97,662.98 C802.76,662.85 802.39,662.70 801.91,662.55 ZM 305.34 270.30 C305.27,270.28 305.19,270.27 305.11,270.25 C304.72,270.15 304.34,270.06 303.97,269.98 C302.68,269.41 302.71,268.33 304.25,267.73 C304.94,267.47 306.32,263.48 307.33,258.87 C311.34,240.57 313.33,232.23 315.13,226.29 C316.16,222.88 317.00,219.41 317.00,218.58 C317.00,216.10 320.35,206.00 321.17,206.00 C321.48,206.00 321.65,206.30 321.64,206.73 C321.48,207.40 321.33,208.06 321.17,208.73 C320.43,211.82 318.68,219.32 316.59,228.45 C313.59,241.37 310.99,252.63 309.80,257.86 C307.19,268.76 306.48,270.29 305.34,270.30 ZM 577.50 812.61 C590.19,812.81 602.23,813.03 612.96,813.26 L 612.97 813.26 C624.31,813.57 634.62,813.85 642.50,814.07 C645.43,814.15 648.50,814.23 651.63,814.32 L 651.64 814.32 C656.18,814.50 658.66,814.67 658.54,814.80 C657.73,815.60 618.00,815.56 618.00,814.75 C618.00,813.63 614.22,813.84 613.50,815.00 C613.16,815.55 612.43,816.00 611.88,816.00 C611.33,816.00 611.16,815.55 611.50,815.00 C611.90,814.35 607.23,813.95 598.31,813.86 C590.71,813.79 577.53,813.39 569.00,812.98 C555.88,812.34 557.19,812.28 577.50,812.61 ZM 599.50 654.29 C591.12,654.05 583.05,653.81 575.55,653.56 C573.90,653.39 573.00,653.19 573.00,652.98 C573.00,652.40 577.28,652.00 583.34,652.00 C598.81,652.00 618.00,653.19 618.00,654.15 C618.00,654.35 617.63,654.51 617.01,654.62 C609.91,654.52 602.99,654.39 599.50,654.29 ZM 486.46 322.34 C486.29,323.02 485.53,324.50 484.07,326.93 C482.43,328.84 482.20,328.86 483.02,327.19 C484.99,323.12 483.07,322.28 471.60,322.15 C464.46,322.07 460.90,322.42 460.20,323.27 C459.64,323.94 458.67,327.20 458.04,330.50 C456.53,338.53 454.59,345.74 453.72,346.62 C453.32,347.01 453.00,347.07 453.00,346.75 C453.00,346.56 453.40,344.71 454.00,342.10 L 454.00 342.10 C454.54,339.89 455.19,337.08 456.02,333.50 C456.73,330.43 457.46,327.40 457.97,325.31 C458.27,324.09 458.51,323.17 458.64,322.72 C458.66,322.64 458.69,322.56 458.72,322.48 C459.04,321.77 459.79,321.39 462.24,321.20 C464.28,321.08 467.52,321.12 472.74,321.22 C479.92,321.37 485.36,321.82 486.46,322.34 ZM 557.25 652.85 C556.68,652.86 556.13,652.87 555.59,652.87 C552.77,652.76 550.11,652.66 547.64,652.55 C546.58,652.41 546.00,652.23 546.00,652.00 C546.00,650.87 553.55,650.85 562.50,651.96 C567.85,652.62 567.27,652.72 557.25,652.85 ZM 525.03 324.54 C525.30,324.05 525.58,323.59 525.86,323.20 C526.86,322.23 528.38,322.04 532.34,322.12 L 535.99 322.35 L 537.24 322.43 L 533.43 322.99 C530.64,323.40 527.36,324.27 526.13,324.93 C525.11,325.48 524.58,325.74 524.44,325.64 C524.56,325.42 524.68,325.21 524.78,325.02 C524.85,324.88 524.92,324.75 524.99,324.62 ZM 637.55 150.71 L 635.78 152.64 C635.46,152.87 635.17,153.00 634.98,153.00 C634.56,153.00 633.95,152.32 633.64,151.50 C633.22,150.40 633.76,150.00 635.65,150.00 C637.27,150.00 637.81,150.13 637.55,150.71 Z" fill="rgb(48,182,120)"/>
<path d="M 687.52 342.71 C688.82,343.13 690.15,343.54 691.50,343.95 C691.64,343.99 691.78,344.03 691.92,344.08 C693.60,345.19 693.15,347.24 690.55,349.95 C689.21,351.35 686.17,355.03 683.80,358.13 C681.44,361.23 673.22,371.58 665.54,381.13 C657.86,390.68 647.10,404.12 641.63,411.00 C636.17,417.88 631.09,423.86 630.35,424.30 C629.61,424.74 629.00,425.55 629.00,426.09 C629.00,426.64 626.19,430.59 622.75,434.86 C616.00,443.26 606.82,454.92 577.01,493.00 C566.46,506.48 553.93,522.39 549.16,528.38 C544.40,534.36 540.05,539.99 539.50,540.90 C538.95,541.80 531.50,551.53 522.95,562.52 C514.40,573.51 502.26,589.25 495.98,597.50 C470.14,631.43 466.82,635.78 461.99,642.00 C453.54,652.92 397.24,728.43 384.09,746.50 C373.13,761.56 362.89,775.54 353.49,788.31 C351.83,790.56 348.99,793.27 347.19,794.32 C343.85,796.27 332.88,797.55 330.00,796.33 C326.50,794.84 321.73,790.40 319.45,786.51 C314.74,778.47 316.44,771.27 326.10,758.22 C329.07,754.21 336.35,744.31 342.29,736.22 C363.57,707.18 378.89,686.40 383.37,680.50 C387.56,674.96 403.71,653.49 413.72,640.14 C416.05,637.04 419.10,632.92 420.50,631.00 C423.26,627.21 423.46,626.95 439.00,606.61 C444.77,599.05 450.62,591.36 452.00,589.52 C457.39,582.30 493.19,535.62 499.21,527.95 C500.70,526.05 507.34,517.53 513.95,509.00 C520.56,500.48 527.64,491.53 529.67,489.12 C531.70,486.71 534.46,483.11 535.81,481.12 C537.15,479.13 540.20,475.02 542.59,472.00 C544.98,468.98 550.65,461.77 555.20,456.00 C559.74,450.23 563.91,444.99 564.48,444.36 C565.04,443.73 567.53,440.60 570.00,437.42 C572.47,434.23 577.42,427.93 581.00,423.42 C584.58,418.91 590.42,411.48 594.00,406.89 C600.37,398.73 605.75,391.89 614.25,381.13 C616.59,378.18 620.30,373.63 622.50,371.01 C624.70,368.40 631.90,359.39 638.50,351.00 C639.67,349.51 640.75,348.13 641.76,346.85 C653.31,332.14 654.96,330.04 656.57,330.07 C656.98,330.08 657.38,330.23 657.95,330.34 C659.24,330.60 662.51,332.05 665.56,333.70 C665.94,333.91 666.32,334.11 666.69,334.32 C668.23,335.20 670.15,336.13 672.35,337.10 C677.19,339.24 683.07,341.43 687.52,342.71 Z" fill="rgb(200,136,54)"/>
<path d="M 711.50 327.13 C706.18,325.72 701.94,322.97 700.91,320.27 C700.36,318.83 700.05,314.96 700.21,311.67 L 700.50 305.70 L 707.39 303.81 C715.64,301.56 727.15,296.37 733.33,292.11 L 737.82 289.03 L 743.16 291.46 C749.18,294.21 758.66,295.98 767.36,295.99 L 773.23 296.00 L 772.54 300.75 C771.46,308.23 767.69,315.59 763.95,317.52 C758.25,320.48 747.92,324.04 740.62,325.59 C732.14,327.38 715.71,328.26 711.50,327.13 ZM 687.00 321.09 C677.04,317.95 661.23,307.15 651.60,296.92 C643.28,288.07 640.52,282.98 639.46,274.56 C638.78,269.05 638.85,268.73 640.61,269.49 C648.12,272.73 654.47,274.27 661.24,274.52 L 668.98 274.80 L 674.87 282.65 C680.56,290.24 688.41,298.36 694.39,302.84 C697.17,304.93 697.29,305.33 697.29,313.26 L 697.30 321.50 L 693.40 321.69 C691.25,321.79 688.38,321.52 687.00,321.09 ZM 753.39 291.51 C750.03,290.78 745.42,289.23 743.14,288.07 L 739.00 285.96 L 738.99 279.23 C738.98,271.76 737.73,262.76 735.35,253.12 L 733.77 246.74 L 742.50 238.18 C750.93,229.92 759.88,219.82 761.80,216.40 C762.64,214.89 764.08,215.07 777.61,218.37 C785.80,220.37 793.22,222.00 794.09,222.00 C796.65,222.00 800.33,236.89 801.57,252.26 L 802.28 261.01 L 795.14 270.38 C791.22,275.54 784.85,282.73 780.98,286.38 L 773.96 293.00 L 766.73 292.92 C762.75,292.88 756.75,292.24 753.39,291.51 ZM 654.05 270.91 C651.60,270.43 647.27,268.90 644.43,267.51 C640.13,265.41 638.77,264.03 636.24,259.24 C631.64,250.55 627.82,237.48 627.67,230.00 C627.57,224.29 628.07,222.42 631.80,214.56 C634.14,209.64 637.89,203.18 640.13,200.21 L 644.22 194.80 L 654.36 195.43 C659.94,195.78 666.64,196.32 669.25,196.63 L 674.00 197.19 L 674.01 201.84 C674.04,209.22 676.71,218.75 681.54,228.70 C683.99,233.77 686.00,238.14 686.00,238.42 C686.00,238.71 683.93,242.14 681.40,246.06 C678.86,249.97 674.78,257.41 672.33,262.59 L 667.87 272.00 L 663.19 271.89 C660.61,271.83 656.50,271.39 654.05,270.91 ZM 807.92 262.48 C805.49,261.20 805.28,260.44 804.18,249.20 C803.54,242.64 801.93,233.54 800.61,228.98 C798.37,221.25 798.31,220.39 799.67,216.59 C800.48,214.34 801.98,208.75 802.99,204.16 C804.01,199.58 805.10,195.57 805.42,195.25 C805.73,194.93 807.06,195.16 808.36,195.76 C812.94,197.84 817.65,221.36 816.63,237.06 C816.05,246.09 812.84,261.59 811.24,263.14 C810.83,263.53 809.34,263.24 807.92,262.48 ZM 723.50 242.42 C717.67,240.79 704.16,238.43 695.31,237.48 L 689.13 236.82 L 685.13 229.13 C680.24,219.73 677.00,208.45 677.00,200.81 L 677.00 195.09 L 690.62 180.04 C698.12,171.77 704.53,165.00 704.87,165.00 C705.22,165.01 709.55,165.67 714.50,166.48 C731.55,169.26 747.95,174.51 748.04,177.21 C748.06,177.92 750.95,186.13 754.45,195.45 L 760.82 212.40 L 757.70 216.95 C752.66,224.32 732.78,244.02 730.50,243.91 C729.40,243.86 726.25,243.19 723.50,242.42 ZM 627.03 214.98 C626.98,212.09 630.90,199.42 633.94,192.63 C637.00,185.81 644.89,173.00 646.03,173.00 C646.36,173.00 645.84,176.04 644.88,179.75 C643.91,183.46 643.09,187.77 643.06,189.32 C643.02,191.11 641.50,193.92 638.93,196.97 C636.69,199.63 633.10,205.11 630.95,209.15 C628.81,213.19 627.04,215.82 627.03,214.98 ZM 800.33 184.77 C792.22,174.57 787.40,169.45 780.66,163.82 C775.31,159.35 767.10,149.00 768.90,149.00 C770.59,149.00 781.87,157.55 787.84,163.34 C794.28,169.61 800.57,177.77 805.40,186.16 C809.69,193.60 806.71,192.79 800.33,184.77 ZM 746.00 171.98 C741.91,169.29 726.21,165.31 708.38,162.46 C705.87,162.06 704.45,160.73 701.22,155.73 C699.00,152.30 696.02,148.41 694.59,147.08 C693.17,145.74 692.00,144.34 692.00,143.96 C692.00,142.28 705.04,137.80 712.62,136.87 C725.62,135.28 746.71,138.26 755.98,142.99 C760.83,145.47 772.31,158.12 770.89,159.41 C770.67,159.61 767.80,161.13 764.50,162.80 C761.20,164.47 756.25,167.44 753.50,169.42 C747.94,173.41 748.09,173.36 746.00,171.98 Z" fill="rgb(254,254,254)"/>
</g>
</svg>